<svg width="32" height="32" viewBox="0 0 32 32" fill="none" xmlns="http://www.w3.org/2000/svg">
<circle cx="16" cy="16" r="16" fill="white"/>
<path fill-rule="evenodd" clip-rule="evenodd" d="M10 7C9.73478 7 9.48043 7.10536 9.29289 7.29289C9.10536 7.48043 9 7.73478 9 8V12C9 12.2652 9.10536 12.5196 9.29289 12.7071C9.48043 12.8946 9.73478 13 10 13H14V25C14 25.2652 14.1054 25.5196 14.2929 25.7071C14.4804 25.8946 14.7348 26 15 26H18C18.2652 26 18.5196 25.8946 18.7071 25.7071C18.8946 25.5196 19 25.2652 19 25V13H23C23.2652 13 23.5196 12.8946 23.7071 12.7071C23.8946 12.5196 24 12.2652 24 12V11C23.9999 10.7348 23.8946 10.4805 23.707 10.293L23.05 9.636C22.2143 8.80028 21.2221 8.13734 20.1302 7.68506C19.0382 7.23277 17.8679 6.99999 16.686 7H10Z" fill="#2C3E50"/>
</svg>
