<svg width="392" height="203" viewBox="0 0 392 203" fill="none" xmlns="http://www.w3.org/2000/svg">
<path d="M165.202 60.7692V52.9091H202.234V60.7692H188.43V98H179.006V60.7692H165.202ZM247.711 75.4545C247.711 80.3717 246.779 84.5549 244.914 88.0043C243.065 91.4536 240.54 94.0883 237.341 95.9084C234.155 97.7138 230.574 98.6165 226.596 98.6165C222.589 98.6165 218.993 97.7064 215.808 95.8864C212.623 94.0663 210.105 91.4316 208.256 87.9822C206.407 84.5329 205.482 80.357 205.482 75.4545C205.482 70.5374 206.407 66.3542 208.256 62.9048C210.105 59.4555 212.623 56.8281 215.808 55.0227C218.993 53.2027 222.589 52.2926 226.596 52.2926C230.574 52.2926 234.155 53.2027 237.341 55.0227C240.54 56.8281 243.065 59.4555 244.914 62.9048C246.779 66.3542 247.711 70.5374 247.711 75.4545ZM238.045 75.4545C238.045 72.2694 237.568 69.5833 236.614 67.3963C235.675 65.2093 234.346 63.5507 232.629 62.4205C230.912 61.2902 228.901 60.7251 226.596 60.7251C224.292 60.7251 222.281 61.2902 220.564 62.4205C218.846 63.5507 217.511 65.2093 216.556 67.3963C215.617 69.5833 215.147 72.2694 215.147 75.4545C215.147 78.6397 215.617 81.3258 216.556 83.5128C217.511 85.6998 218.846 87.3584 220.564 88.4886C222.281 89.6188 224.292 90.1839 226.596 90.1839C228.901 90.1839 230.912 89.6188 232.629 88.4886C234.346 87.3584 235.675 85.6998 236.614 83.5128C237.568 81.3258 238.045 78.6397 238.045 75.4545ZM250.997 60.7692V52.9091H288.029V60.7692H274.225V98H264.801V60.7692H250.997ZM296.39 98H286.174L301.74 52.9091H314.026L329.57 98H319.354L308.059 63.2131H307.707L296.39 98ZM295.752 80.2763H319.882V87.718H295.752V80.2763ZM334.997 98V52.9091H344.531V90.1399H363.862V98H334.997Z" fill="#1C2F3B"/>
<path d="M168.202 120.769V112.909H205.234V120.769H191.43V158H182.006V120.769H168.202ZM220.866 112.909V158H211.333V112.909H220.866ZM228.71 112.909H240.467L252.885 143.205H253.413L265.831 112.909H277.588V158H268.341V128.651H267.966L256.297 157.78H250.001L238.331 128.541H237.957V158H228.71V112.909ZM294.976 112.909V158H285.442V112.909H294.976ZM340.535 112.909V158H332.3L312.683 129.62H312.353V158H302.819V112.909H311.186L330.649 141.267H331.045V112.909H340.535ZM378.31 127.484C378.002 126.413 377.569 125.466 377.011 124.644C376.454 123.808 375.771 123.103 374.964 122.531C374.171 121.943 373.261 121.496 372.234 121.188C371.221 120.879 370.098 120.725 368.865 120.725C366.561 120.725 364.535 121.298 362.788 122.442C361.056 123.587 359.706 125.253 358.737 127.44C357.768 129.613 357.284 132.269 357.284 135.411C357.284 138.552 357.761 141.223 358.715 143.425C359.669 145.626 361.02 147.307 362.766 148.467C364.513 149.612 366.575 150.184 368.953 150.184C371.111 150.184 372.953 149.802 374.479 149.039C376.021 148.261 377.195 147.168 378.002 145.759C378.824 144.349 379.235 142.683 379.235 140.761L381.173 141.047H369.548V133.869H388.416V139.55C388.416 143.513 387.58 146.918 385.906 149.766C384.233 152.598 381.929 154.786 378.993 156.327C376.057 157.853 372.696 158.616 368.909 158.616C364.682 158.616 360.968 157.684 357.768 155.82C354.569 153.942 352.073 151.277 350.283 147.828C348.507 144.364 347.619 140.254 347.619 135.499C347.619 131.844 348.147 128.585 349.204 125.723C350.275 122.846 351.772 120.41 353.695 118.413C355.618 116.417 357.857 114.898 360.411 113.856C362.964 112.814 365.731 112.293 368.711 112.293C371.265 112.293 373.643 112.667 375.844 113.415C378.046 114.149 379.998 115.192 381.701 116.542C383.418 117.892 384.82 119.5 385.906 121.364C386.992 123.213 387.69 125.253 387.998 127.484H378.31Z" fill="#1C2F3B"/>
<path d="M78.5 47.5039C121.581 47.5039 156.5 82.2048 156.5 125.004C156.5 167.803 121.581 202.504 78.5 202.504C35.4188 202.504 0.5 167.803 0.5 125.004C0.5 82.2048 35.4188 47.5039 78.5 47.5039Z" fill="#1C2F3B" stroke="black"/>
<ellipse cx="79" cy="125.504" rx="71" ry="70.5" fill="#F5F5F5"/>
<ellipse cx="79.5" cy="66.0039" rx="77.5" ry="18" fill="#F5F5F5"/>
<ellipse cx="79" cy="125.504" rx="63" ry="63.5" fill="#1C2F3B"/>
<rect x="16" y="125.004" width="16" height="5" fill="#D9D9D9"/>
<rect x="78" y="189.002" width="16" height="5" transform="rotate(-89.0637 78 189.002)" fill="#D9D9D9"/>
<ellipse cx="80" cy="128.504" rx="7" ry="6.5" fill="#D9D9D9"/>
<ellipse cx="80" cy="128.504" rx="4" ry="3.5" fill="#1C2F3B"/>
<path d="M116.024 105.004L117.508 107.611C118.054 108.571 117.719 109.792 116.759 110.339L85.4737 128.149L83.0001 123.804L116.024 105.004Z" fill="#D9D9D9"/>
<path d="M50.5065 107.808C49.6745 107.081 49.589 105.818 50.3155 104.986L52.2887 102.726L76.8402 124.165L73.5514 127.931L50.5065 107.808Z" fill="#D9D9D9"/>
<path d="M142 73.0039C142 59.3453 135.521 46.246 123.987 36.5879C112.454 26.9298 97.6363 16.0039 81.3255 16.0039C65.0147 16.0039 45.0034 24.5039 34.6846 36.5879C23.1511 46.246 19 59.3452 19 73.0039L80.5 73.0039H142Z" fill="#E08524"/>
<path d="M133 62.0039H148C150.761 62.0039 153 64.2425 153 67.0039V68.0039C153 70.7653 150.761 73.0039 148 73.0039H143H133V62.0039Z" fill="#E08524"/>
<path d="M26 73.0039L11.0203 73.0316C8.25892 73.0367 6.01621 70.8023 6.0111 68.0409L6.00925 67.0409C6.00415 64.2795 8.23858 62.0368 11 62.0317L15.9898 62.0224L25.9797 62.004L26 73.0039Z" fill="#E08524"/>
<path d="M62 16.0039C62 8.8242 67.8203 3.00391 75 3.00391H84C91.1797 3.00391 97 8.8242 97 16.0039V38.0039H62V16.0039Z" fill="#E08524"/>
<path d="M97.4263 0L103.584 0.600309L97.4263 53.5039L94.9451 57.6019L93.5 53.5039L97.4263 0Z" fill="#F5F5F5"/>
<path d="M56.0596 0.814453L62.1943 0.00947557L68.1346 52.938L66.6423 57.4902L64.3096 53.8241L56.0596 0.814453Z" fill="#F5F5F5"/>
</svg>
