<svg width="499" height="63" viewBox="0 0 499 63" fill="none" xmlns="http://www.w3.org/2000/svg">
<path d="M23.814 16.516V22.27H16.002V46H8.82V22.27H1.008V16.516H23.814ZM41.3625 46.294C38.5905 46.294 36.0425 45.65 33.7185 44.362C31.4225 43.074 29.5885 41.282 28.2165 38.986C26.8725 36.662 26.2005 34.058 26.2005 31.174C26.2005 28.29 26.8725 25.7 28.2165 23.404C29.5885 21.108 31.4225 19.316 33.7185 18.028C36.0425 16.74 38.5905 16.096 41.3625 16.096C44.1345 16.096 46.6685 16.74 48.9645 18.028C51.2885 19.316 53.1085 21.108 54.4245 23.404C55.7685 25.7 56.4405 28.29 56.4405 31.174C56.4405 34.058 55.7685 36.662 54.4245 38.986C53.0805 41.282 51.2605 43.074 48.9645 44.362C46.6685 45.65 44.1345 46.294 41.3625 46.294ZM41.3625 39.742C43.7145 39.742 45.5905 38.958 46.9905 37.39C48.4185 35.822 49.1325 33.75 49.1325 31.174C49.1325 28.57 48.4185 26.498 46.9905 24.958C45.5905 23.39 43.7145 22.606 41.3625 22.606C38.9825 22.606 37.0785 23.376 35.6505 24.916C34.2505 26.456 33.5505 28.542 33.5505 31.174C33.5505 33.778 34.2505 35.864 35.6505 37.432C37.0785 38.972 38.9825 39.742 41.3625 39.742ZM81.646 16.516V22.27H73.834V46H66.652V22.27H58.84V16.516H81.646ZM103.604 40.792H92.6005L90.8365 46H83.3185L93.9865 16.516H102.302L112.97 46H105.368L103.604 40.792ZM101.756 35.248L98.1025 24.454L94.4905 35.248H101.756ZM123.399 40.456H132.807V46H116.217V16.516H123.399V40.456ZM143.415 22.27V28.234H153.033V33.778H143.415V40.246H154.293V46H136.233V16.516H154.293V22.27H143.415ZM185.332 46H178.15L166.138 27.814V46H158.956V16.516H166.138L178.15 34.786V16.516H185.332V46ZM211.748 16.516V22.27H203.936V46H196.754V22.27H188.942V16.516H211.748ZM230.388 46L224.256 34.87H222.534V46H215.352V16.516H227.406C229.73 16.516 231.704 16.922 233.328 17.734C234.98 18.546 236.212 19.666 237.024 21.094C237.836 22.494 238.242 24.062 238.242 25.798C238.242 27.758 237.682 29.508 236.562 31.048C235.47 32.588 233.846 33.68 231.69 34.324L238.494 46H230.388ZM222.534 29.788H226.986C228.302 29.788 229.282 29.466 229.926 28.822C230.598 28.178 230.934 27.268 230.934 26.092C230.934 24.972 230.598 24.09 229.926 23.446C229.282 22.802 228.302 22.48 226.986 22.48H222.534V29.788ZM249.932 22.27V28.234H259.55V33.778H249.932V40.246H260.81V46H242.75V16.516H260.81V22.27H249.932ZM287.943 26.008C287.943 27.716 287.551 29.284 286.767 30.712C285.983 32.112 284.779 33.246 283.155 34.114C281.531 34.982 279.515 35.416 277.107 35.416H272.655V46H265.473V16.516H277.107C279.459 16.516 281.447 16.922 283.071 17.734C284.695 18.546 285.913 19.666 286.725 21.094C287.537 22.522 287.943 24.16 287.943 26.008ZM276.561 29.704C277.933 29.704 278.955 29.382 279.627 28.738C280.299 28.094 280.635 27.184 280.635 26.008C280.635 24.832 280.299 23.922 279.627 23.278C278.955 22.634 277.933 22.312 276.561 22.312H272.655V29.704H276.561ZM306.718 46L300.586 34.87H298.864V46H291.682V16.516H303.736C306.06 16.516 308.034 16.922 309.658 17.734C311.31 18.546 312.542 19.666 313.354 21.094C314.166 22.494 314.572 24.062 314.572 25.798C314.572 27.758 314.012 29.508 312.892 31.048C311.8 32.588 310.176 33.68 308.02 34.324L314.824 46H306.718ZM298.864 29.788H303.316C304.632 29.788 305.612 29.466 306.256 28.822C306.928 28.178 307.264 27.268 307.264 26.092C307.264 24.972 306.928 24.09 306.256 23.446C305.612 22.802 304.632 22.48 303.316 22.48H298.864V29.788ZM326.263 22.27V28.234H335.881V33.778H326.263V40.246H337.141V46H319.081V16.516H337.141V22.27H326.263ZM368.179 46H360.997L348.985 27.814V46H341.803V16.516H348.985L360.997 34.786V16.516H368.179V46ZM398.669 21.052C399.845 22.368 400.755 23.894 401.399 25.63C402.043 27.338 402.365 29.186 402.365 31.174C402.365 34.058 401.693 36.662 400.349 38.986C399.005 41.282 397.185 43.074 394.889 44.362C392.593 45.65 390.059 46.294 387.287 46.294C385.607 46.294 383.997 46.056 382.457 45.58C380.945 45.104 379.559 44.404 378.299 43.48L376.073 45.958H371.705L375.905 41.338C374.701 40.022 373.763 38.496 373.091 36.76C372.447 35.024 372.125 33.162 372.125 31.174C372.125 28.29 372.797 25.7 374.141 23.404C375.513 21.108 377.347 19.316 379.643 18.028C381.967 16.74 384.515 16.096 387.287 16.096C390.647 16.096 393.643 17.02 396.275 18.868L398.501 16.432H402.869L398.669 21.052ZM379.475 31.174C379.475 33.05 379.867 34.688 380.651 36.088L391.739 23.866C390.451 23.026 388.967 22.606 387.287 22.606C384.907 22.606 383.003 23.376 381.575 24.916C380.175 26.456 379.475 28.542 379.475 31.174ZM395.057 31.174C395.057 29.298 394.679 27.674 393.923 26.302L382.835 38.482C384.123 39.322 385.607 39.742 387.287 39.742C389.639 39.742 391.515 38.958 392.915 37.39C394.343 35.822 395.057 33.75 395.057 31.174ZM421.439 46L415.307 34.87H413.585V46H406.403V16.516H418.457C420.781 16.516 422.755 16.922 424.379 17.734C426.031 18.546 427.263 19.666 428.075 21.094C428.887 22.494 429.293 24.062 429.293 25.798C429.293 27.758 428.733 29.508 427.613 31.048C426.521 32.588 424.897 33.68 422.741 34.324L429.545 46H421.439ZM413.585 29.788H418.037C419.353 29.788 420.333 29.466 420.977 28.822C421.649 28.178 421.985 27.268 421.985 26.092C421.985 24.972 421.649 24.09 420.977 23.446C420.333 22.802 419.353 22.48 418.037 22.48H413.585V29.788ZM461.056 40.792H450.052L448.288 46H440.77L451.438 16.516H459.754L470.422 46H462.82L461.056 40.792ZM459.208 35.248L455.554 24.454L451.942 35.248H459.208ZM484.336 46.294C482.18 46.294 480.248 45.944 478.54 45.244C476.832 44.544 475.46 43.508 474.424 42.136C473.416 40.764 472.884 39.112 472.828 37.18H480.472C480.584 38.272 480.962 39.112 481.606 39.7C482.25 40.26 483.09 40.54 484.126 40.54C485.19 40.54 486.03 40.302 486.646 39.826C487.262 39.322 487.57 38.636 487.57 37.768C487.57 37.04 487.318 36.438 486.814 35.962C486.338 35.486 485.736 35.094 485.008 34.786C484.308 34.478 483.3 34.128 481.984 33.736C480.08 33.148 478.526 32.56 477.322 31.972C476.118 31.384 475.082 30.516 474.214 29.368C473.346 28.22 472.912 26.722 472.912 24.874C472.912 22.13 473.906 19.988 475.894 18.448C477.882 16.88 480.472 16.096 483.664 16.096C486.912 16.096 489.53 16.88 491.518 18.448C493.506 19.988 494.57 22.144 494.71 24.916H486.94C486.884 23.964 486.534 23.222 485.89 22.69C485.246 22.13 484.42 21.85 483.412 21.85C482.544 21.85 481.844 22.088 481.312 22.564C480.78 23.012 480.514 23.67 480.514 24.538C480.514 25.49 480.962 26.232 481.858 26.764C482.754 27.296 484.154 27.87 486.058 28.486C487.962 29.13 489.502 29.746 490.678 30.334C491.882 30.922 492.918 31.776 493.786 32.896C494.654 34.016 495.088 35.458 495.088 37.222C495.088 38.902 494.654 40.428 493.786 41.8C492.946 43.172 491.714 44.264 490.09 45.076C488.466 45.888 486.548 46.294 484.336 46.294Z" fill="#2C3E50"/>
<path d="M437 53H499" stroke="#EC9713" stroke-width="10"/>
</svg>
